<?xml version="1.0" encoding="UTF-8"?>
<svg version="1.1" xmlns="http://www.w3.org/2000/svg" width="512" height="512">
<path d="M0 0 C18.62538815 17.09966084 31.82573444 39.82956524 37 64.6875 C37 66.0075 37 67.3275 37 68.6875 C37.81855469 68.76226562 38.63710938 68.83703125 39.48046875 68.9140625 C78.1441807 73.06969856 130.59954543 82.95010144 160 110.6875 C160.64839844 111.25855469 161.29679687 111.82960938 161.96484375 112.41796875 C168.32644416 118.29538816 172.67989452 125.34420084 173.203125 134.078125 C173.36989599 147.80893623 170.32776641 154.88653834 160.8828125 164.94140625 C139.66160726 185.48381873 95.0439498 202.6875 66 202.6875 C66.18699463 203.24622803 66.37398926 203.80495605 66.56665039 204.38061523 C67.41708737 206.95638387 68.23982651 209.5402365 69.0625 212.125 C69.50432617 213.44274414 69.50432617 213.44274414 69.95507812 214.78710938 C71.75915425 220.53892856 72.79918714 225.78792814 71 231.6875 C69.19402364 234.28743382 67.87792396 235.03535847 65 236.6875 C59.92153806 237.40026659 57.09933836 236.68572158 53 233.6875 C51.77734375 231.515625 51.77734375 231.515625 50.9375 228.9375 C50.62167969 227.97714844 50.30585938 227.01679688 49.98046875 226.02734375 C48.19479842 219.94468188 46.57122467 213.82904051 45 207.6875 C43.97801514 207.80867187 42.95603027 207.92984375 41.90307617 208.0546875 C3.94587862 212.54490252 -33.76935577 215.78821347 -72 216.6875 C-72.00410889 217.60039795 -72.00821777 218.5132959 -72.01245117 219.45385742 C-72.03949402 222.85584778 -72.08863862 226.25605061 -72.15258789 229.6574707 C-72.17571993 231.12675947 -72.1901524 232.59621292 -72.19555664 234.06567383 C-72.20488279 236.18414345 -72.24594127 238.30004065 -72.29296875 240.41796875 C-72.3086792 241.69051514 -72.32438965 242.96306152 -72.34057617 244.27416992 C-73.16104178 248.52108947 -74.6967984 249.9892552 -78 252.6875 C-80.86608129 254.12054064 -82.81300783 253.99394155 -86 253.6875 C-91.57894737 250.52960526 -91.57894737 250.52960526 -93 247.6875 C-93.15520557 245.36476841 -93.25019167 243.03790687 -93.31640625 240.7109375 C-93.33718735 240.02569 -93.35796844 239.3404425 -93.37937927 238.63442993 C-93.44480185 236.44388931 -93.50372554 234.25322811 -93.5625 232.0625 C-93.60569218 230.5781125 -93.6493067 229.09373722 -93.69335938 227.609375 C-93.80047553 223.96887916 -93.90176362 220.32824749 -94 216.6875 C-94.7849585 216.67291748 -95.56991699 216.65833496 -96.37866211 216.64331055 C-129.38480078 215.97232878 -162.14702484 213.78164404 -194.86572266 209.31347656 C-196.04712578 209.15225563 -196.04712578 209.15225563 -197.25239563 208.98777771 C-198.71783521 208.78610827 -200.18286792 208.5814497 -201.64738464 208.3731842 C-204.82088427 207.93109034 -207.78383984 207.6875 -211 207.6875 C-211.24907104 208.64789185 -211.24907104 208.64789185 -211.50317383 209.62768555 C-212.26482897 212.54564638 -213.03853512 215.46028119 -213.8125 218.375 C-214.07353516 219.38240234 -214.33457031 220.38980469 -214.60351562 221.42773438 C-214.99506836 222.89243164 -214.99506836 222.89243164 -215.39453125 224.38671875 C-215.74801636 225.72996216 -215.74801636 225.72996216 -216.10864258 227.1003418 C-217.31987896 230.61594627 -218.7326493 233.73698698 -221.75 236 C-225.0739743 237.01565881 -227.53686262 237.10546486 -231 236.6875 C-234.38594419 234.74371722 -236.42795443 233.56324927 -237.57836914 229.79101562 C-238.39395372 223.32549292 -237.11566412 218.24855074 -235.0625 212.125 C-234.62647461 210.75504883 -234.62647461 210.75504883 -234.18164062 209.35742188 C-233.46982147 207.12861107 -232.74255885 204.90621849 -232 202.6875 C-232.72123047 202.58010498 -233.44246094 202.47270996 -234.18554688 202.36206055 C-241.76386934 201.17444031 -249.1033749 199.52215951 -256.5 197.5 C-257.63074951 197.19102783 -258.76149902 196.88205566 -259.92651367 196.5637207 C-287.83011408 188.80473607 -321.39582895 178.46520959 -336.87109375 151.984375 C-340.54439048 144.51067784 -340.32734473 134.20991563 -338.01171875 126.3203125 C-328.8683827 106.48828783 -306.3816964 95.9294004 -286.96289062 88.53027344 C-261.33994079 79.20927978 -230.56434147 68.6875 -203 68.6875 C-202.83757812 66.99367187 -202.83757812 66.99367187 -202.671875 65.265625 C-202.06674707 60.46268653 -200.76362917 56.02425505 -199.25 51.4375 C-199.01023438 50.64859375 -198.77046875 49.8596875 -198.5234375 49.046875 C-196.95592004 44.26352274 -195.62127057 41.19176394 -191 38.6875 C-189.66660599 38.53934511 -188.32802217 38.43387668 -186.98828125 38.36328125 C-184.5447524 38.1641959 -183.38942311 38.04408499 -181.56396484 36.37255859 C-180.30211426 34.59271197 -179.22956023 32.79154331 -178.1875 30.875 C-177.45280617 29.61791441 -176.71715245 28.36138926 -175.98046875 27.10546875 C-175.32691406 25.97753906 -174.67335937 24.84960938 -174 23.6875 C-173.39800781 22.96175781 -172.79601562 22.23601562 -172.17578125 21.48828125 C-170.76562681 19.76374141 -170.76562681 19.76374141 -171.29296875 17.71484375 C-171.52628906 17.04582031 -171.75960937 16.37679687 -172 15.6875 C-172.50886529 11.02429182 -172.65859461 7.74125137 -170.125 3.6875 C-166.78634935 0.54524057 -164.61724196 0.55211913 -160.0703125 0.45703125 C-157.68656167 0.72239219 -156.07297908 1.5115724 -154 2.6875 C-153.28714844 2.15640625 -152.57429687 1.6253125 -151.83984375 1.078125 C-137.75182482 -9.3125 -137.75182482 -9.3125 -134 -9.3125 C-134.226875 -10.364375 -134.45375 -11.41625 -134.6875 -12.5 C-135.03938009 -16.79293713 -134.71394035 -18.05577158 -132 -21.3125 C-128.05101849 -24.04863161 -123.8735782 -25.50225877 -119.3125 -26.875 C-118.60206543 -27.09188477 -117.89163086 -27.30876953 -117.15966797 -27.53222656 C-75.28219418 -40.07928509 -32.36063535 -28.37165102 0 0 Z " fill="#000101" transform="translate(339,145.3125)"/>
<path d="M0 0 C0.09796875 0.59167969 0.1959375 1.18335938 0.296875 1.79296875 C1.26966432 6.93365713 2.4007843 10.04086273 6 14 C6 14.66 6 15.32 6 16 C6.57105469 16.27328125 7.14210938 16.5465625 7.73046875 16.828125 C10.02613038 18.01349245 12.139455 19.35384674 14.3125 20.75 C33.18996515 32.02709037 55.46928934 35.52412498 77 38 C77.86238281 38.10441406 78.72476563 38.20882812 79.61328125 38.31640625 C113.03383163 42.22784844 147.47397885 40.98922129 180.625 35.625 C181.84654785 35.42817627 183.0680957 35.23135254 184.32666016 35.02856445 C200.43753227 32.26886219 217.90125171 28.06709903 231.265625 18.19921875 C233 17 233 17 236 16 C237.08431094 14.25132517 237.08431094 14.25132517 238 12 C238.515625 11.05125 239.03125 10.1025 239.5625 9.125 C240.99936969 6.00137024 241.50588651 3.37879509 242 0 C277.08575068 3.8295258 329.99452406 12.33762097 354.625 40.875 C356.61865329 43.7814777 357.44887678 45.89757111 357.375 49.4375 C355.93514514 56.53915703 350.75874392 61.00074834 345.10546875 65.09765625 C317.78025095 82.58444791 285.72218603 90.06051382 254.14013672 95.45019531 C251.29425961 95.94847826 248.4621428 96.48963041 245.62890625 97.0546875 C233.13948308 99.49025339 220.59112226 100.88654225 207.9375 102.125 C206.71616364 102.24574387 206.71616364 102.24574387 205.47015381 102.368927 C199.31792194 102.96995905 193.16123917 103.50031463 187 104 C185.91731842 104.08933807 184.83463684 104.17867615 183.71914673 104.27072144 C163.83439743 105.87245093 144.0689971 106.36501157 124.13005447 106.31765366 C121.772888 106.31241191 119.4157348 106.31049963 117.05856323 106.30899048 C91.94384457 106.28105451 67.00131665 105.54968791 42 103 C40.76620605 102.8772168 39.53241211 102.75443359 38.26123047 102.62792969 C31.1514541 101.89794841 24.0760617 101.00200311 17 100 C15.35523682 99.77376953 15.35523682 99.77376953 13.67724609 99.54296875 C-0.2183011 97.62338172 -14.01441715 95.43573087 -27.72949219 92.48242188 C-29.93318785 92.01419579 -32.1408922 91.57456028 -34.3515625 91.140625 C-60.07802654 85.94889977 -93.61336548 77.14973646 -112 57 C-114.67921806 52.94057869 -115.87104534 49.83914077 -115 45 C-104.96313767 26.40899363 -78.06126587 17.88797496 -59.11523438 12.12207031 C-46.13400519 8.29448602 -33.00941181 5.23769953 -19.75 2.5625 C-18.47084717 2.30331787 -17.19169434 2.04413574 -15.8737793 1.77709961 C-10.48269526 0.72434281 -5.51056925 -0.14070196 0 0 Z " fill="#6C90AB" transform="translate(135,235)"/>
<path d="M0 0 C1.12277344 0.37382812 2.24554688 0.74765625 3.40234375 1.1328125 C31.23007465 11.12564809 50.74473767 30.20420372 63.6953125 56.43359375 C67.66113665 65.56448827 70.44735449 75.03659102 71 85 C71.07605469 86.09183594 71.15210938 87.18367188 71.23046875 88.30859375 C71.30201172 90.04302734 71.30201172 90.04302734 71.375 91.8125 C71.42398438 92.89144531 71.47296875 93.97039062 71.5234375 95.08203125 C71 98 71 98 68.87109375 100.19921875 C55.22005717 108.76129748 39.33811113 111.56605055 23.6875 114.125 C22.71707764 114.28371582 21.74665527 114.44243164 20.74682617 114.60595703 C4.18181397 117.18276681 -12.11796939 118.3493789 -28.875 118.25 C-29.79509857 118.24723053 -30.71519714 118.24446106 -31.66317749 118.24160767 C-44.87874668 118.19499772 -57.8956994 117.82096563 -71 116 C-72.78109469 115.77869433 -74.56235215 115.55869574 -76.34375 115.33984375 C-119.12388165 109.87611835 -119.12388165 109.87611835 -131 98 C-132.11943095 87.11847268 -130.51008714 75.94824242 -126.875 65.6875 C-125.1544719 60.76614039 -124.18074967 57.18858544 -125 52 C-127.33336666 48.99666733 -127.33336666 48.99666733 -130 47 C-128.59434539 43.14668811 -126.78799023 39.87863435 -124.5625 36.4375 C-123.96566406 35.50808594 -123.36882812 34.57867187 -122.75390625 33.62109375 C-121 31 -121 31 -119.21484375 28.91015625 C-117.76620104 27.09273235 -117.76620104 27.09273235 -118.29296875 25.02734375 C-118.52628906 24.35832031 -118.75960937 23.68929687 -119 23 C-119.50886529 18.33679182 -119.65859461 15.05375137 -117.125 11 C-113.78634935 7.85774057 -111.61724196 7.86461913 -107.0703125 7.76953125 C-104.68656167 8.03489219 -103.07297908 8.8240724 -101 10 C-100.28714844 9.46890625 -99.57429688 8.9378125 -98.83984375 8.390625 C-84.6882419 -2.04689561 -84.6882419 -2.04689561 -80.75 -1.9375 C-79 -1 -79 -1 -77.6171875 0.52734375 C-75.27619268 2.65911922 -73.05273806 2.51888778 -69.9921875 2.43359375 C-65.31167897 1.75534774 -60.86783515 0.33923284 -56.38037109 -1.1328125 C-38.83488539 -6.7813243 -17.30860368 -5.91780193 0 0 Z " fill="#65DFF6" transform="translate(286,138)"/>
<path d="M0 0 C2.69105198 2.17574416 4.45532928 3.91065856 6 7 C6.12243863 11.53022942 5.81830145 14.98332245 2.9375 18.5625 C-0.86901165 20.42526102 -3.83770536 20.71473746 -8 20 C-12.56944444 17.86111111 -12.56944444 17.86111111 -14 15 C-14.55512815 10.36786507 -14.6364242 7.01827873 -12.125 3 C-8.49799372 -0.41365296 -4.84659926 -0.85418991 0 0 Z " fill="#000102" transform="translate(181,146)"/>
<path d="M0 0 C3.64051176 0.81120099 5.09653944 2.45526886 7.15625 5.48046875 C8.21875 8.91796875 8.21875 8.91796875 8.15625 12.48046875 C5.21954114 17.94882318 5.21954114 17.94882318 2.15625 19.48046875 C-0.9266053 19.95894727 -3.76722221 20.02681765 -6.84375 19.48046875 C-10.01832096 16.88898225 -11.38955349 15.4061118 -12.31640625 11.4765625 C-12.59299348 7.73908893 -11.92337876 5.6037649 -9.90625 2.48046875 C-6.33358656 0.14730079 -4.19648565 -0.25878328 0 0 Z " fill="#020304" transform="translate(185.84375,293.51953125)"/>
<path d="M0 0 C2.8100346 1.79363911 4.50940468 3.01880935 6 6 C6.12243863 10.53022942 5.81830145 13.98332245 2.9375 17.5625 C-0.88844599 19.43477144 -3.82161996 19.80191132 -8 19 C-10.9375 17.5625 -10.9375 17.5625 -13 15 C-13.96992656 11.94187861 -14.30767308 9.1963814 -14 6 C-10.48028041 0.17425724 -6.63382773 -0.95313617 0 0 Z " fill="#020203" transform="translate(260,299)"/>
<path d="M0 0 C2.92584944 1.3154029 3.83752812 2.40503374 6 5 C6.81001371 9.63916945 6.72162403 12.56709978 4.0625 16.5 C0.48238636 19.42254174 -1.33686181 19.84613013 -5.84375 19.515625 C-9.46739079 18.6491022 -10.93805301 17.02848464 -13 14 C-14.0625 10.5625 -14.0625 10.5625 -14 7 C-10.53450968 0.54701803 -7.28743426 -1.16059138 0 0 Z " fill="#020303" transform="translate(332,294)"/>
<path d="M0 0 C2.66058731 2.14144833 3.7253011 3.56867416 4.37109375 6.93359375 C4.59425621 10.51095567 4.15244562 12.68848069 2.5625 15.9375 C-1.05901976 18.85238176 -4.39406378 19.44335215 -9 19 C-11.92143417 17.23496686 -13.47923817 16.04152365 -15 13 C-15.5811138 5.91041162 -15.5811138 5.91041162 -13.125 2.0625 C-9.05289345 -1.88983871 -5.28514995 -1.34240931 0 0 Z " fill="#020203" transform="translate(404,276)"/>
<path d="M0 0 C2.66058731 2.14144833 3.7253011 3.56867416 4.37109375 6.93359375 C4.59425621 10.51095567 4.15244562 12.68848069 2.5625 15.9375 C-1.05901976 18.85238176 -4.39406378 19.44335215 -9 19 C-11.92143417 17.23496686 -13.47923817 16.04152365 -15 13 C-15.5811138 5.91041162 -15.5811138 5.91041162 -13.125 2.0625 C-9.05289345 -1.88983871 -5.28514995 -1.34240931 0 0 Z " fill="#020203" transform="translate(119,276)"/>
</svg>
